<?xml version="1.0" standalone="no"?>
<!DOCTYPE svg PUBLIC "-//W3C//DTD SVG 20010904//EN"
 "http://www.w3.org/TR/2001/REC-SVG-20010904/DTD/svg10.dtd">
<svg version="1.0" xmlns="http://www.w3.org/2000/svg"
 width="420.000000pt" height="420.000000pt" viewBox="0 0 420.000000 420.000000"
 preserveAspectRatio="xMidYMid meet">
<metadata>
Created by potrace 1.14, written by Peter Selinger 2001-2017
</metadata>
<g transform="translate(0.000000,420.000000) scale(0.100000,-0.100000)"
fill="#000000" stroke="none">
<path d="M1826 4083 c-10 -101 -25 -243 -41 -378 -21 -180 -44 -389 -55 -490
-25 -228 -42 -376 -50 -443 -6 -40 -10 -90 -10 -111 0 -21 -3 -41 -6 -44 -4
-4 -25 9 -46 29 -22 19 -58 43 -81 53 -83 36 -145 92 -202 181 -35 56 -98 130
-178 212 -69 69 -137 147 -153 174 -15 27 -38 63 -50 79 -12 17 -40 66 -63
110 -40 77 -66 121 -137 231 -49 76 -120 134 -210 173 -43 19 -96 45 -117 59
-22 13 -41 21 -44 19 -2 -3 15 -40 40 -84 24 -43 65 -118 92 -168 26 -49 73
-137 105 -195 31 -58 73 -134 92 -170 19 -36 85 -157 146 -270 61 -113 183
-338 270 -500 108 -199 156 -297 149 -302 -7 -4 -70 -8 -141 -8 -105 0 -152 5
-260 29 -151 33 -227 48 -311 61 -33 5 -109 18 -169 30 -61 11 -126 20 -146
20 -21 0 -51 5 -68 11 -16 6 -47 9 -69 7 l-38 -4 35 -16 c19 -8 261 -107 537
-219 277 -111 499 -207 495 -211 -4 -4 -39 -12 -78 -18 -91 -12 -150 -28 -199
-51 -22 -10 -43 -19 -48 -19 -4 0 -31 -19 -61 -42 -29 -24 -66 -50 -82 -59
-16 -9 -60 -39 -99 -66 -38 -27 -97 -64 -130 -83 -33 -19 -93 -65 -133 -102
-41 -38 -91 -77 -112 -88 -40 -21 -150 -116 -150 -131 0 -11 12 -9 290 38 113
19 232 39 265 44 33 5 98 15 145 23 47 8 168 28 270 45 102 17 221 38 265 46
44 8 91 15 104 15 23 0 24 -2 17 -57 -47 -382 -54 -480 -64 -884 -5 -203 -12
-322 -19 -330 -9 -12 -43 -131 -43 -152 0 -4 4 -7 9 -7 5 0 25 39 46 88 21 48
46 105 56 127 10 22 52 119 94 215 42 96 89 202 104 235 15 33 81 183 147 332
65 150 122 273 126 273 4 0 9 -21 13 -47 25 -202 101 -398 216 -562 71 -100
106 -157 114 -182 4 -13 15 -37 25 -54 46 -76 90 -204 90 -260 0 -35 4 -54 10
-50 6 3 10 36 10 73 0 37 4 114 10 172 11 120 34 408 50 620 28 375 32 390 81
375 34 -11 125 -101 268 -265 147 -170 206 -230 281 -290 30 -24 63 -52 72
-62 10 -9 38 -29 62 -43 24 -14 56 -41 69 -59 14 -18 52 -50 84 -71 32 -22 75
-55 95 -74 21 -19 40 -32 43 -29 3 3 -20 59 -51 124 -31 65 -75 162 -99 214
-24 52 -58 127 -76 165 -118 253 -279 610 -279 617 0 12 113 64 157 72 21 4
83 22 138 40 55 19 134 41 175 51 41 9 140 35 220 57 323 89 364 107 409 173
15 23 45 45 85 64 53 26 57 30 36 35 -24 4 -146 12 -595 36 -571 32 -615 36
-615 56 0 18 35 88 61 124 27 36 95 237 104 305 3 31 17 94 31 139 40 139 66
293 54 316 -12 22 -15 600 -4 662 7 41 48 148 77 205 12 23 18 45 14 49 -4 4
-8 5 -10 3 -4 -6 -81 -137 -104 -179 -20 -35 -399 -683 -561 -960 -47 -80
-101 -172 -120 -205 -45 -79 -48 -83 -76 -78 -17 4 -31 22 -53 66 -17 34 -33
76 -37 92 -4 17 -20 62 -36 100 -16 39 -48 117 -70 175 -23 58 -62 138 -87
178 -25 40 -51 94 -59 120 -7 26 -22 72 -33 102 -11 30 -20 63 -21 72 0 10
-11 43 -25 74 -14 31 -25 64 -25 73 0 9 -7 29 -15 45 -8 15 -15 35 -15 43 0
14 -7 42 -53 193 -14 47 -32 111 -39 143 -7 31 -16 57 -19 57 -4 0 -10 -30
-13 -67z"/>
</g>
</svg>
